<?xml version="1.0" encoding="UTF-8"?>
<!-- Created with Inkscape (http://www.inkscape.org/) -->
<svg width="140" height="60" version="1.1" viewBox="0 0 140 60" xml:space="preserve" xmlns="http://www.w3.org/2000/svg"><g fill="currentColor"><g transform="translate(100,90)"><path d="m-65.303-66.832-8.1797 5.0625-4.834-3.1289-1.6289 2.5137 6.4277 4.1602 9.791-6.0586-1.5762-2.5488z" fill="#ff4700"/><path d="m-89.379-64.5c-.40607 1.4304-.62109 2.9416-.62109 4.5 0 5.1105 2.338 9.6856 6 12.715v11.285h21v-11.285c.4032-.33371.79036-.68476 1.1602-1.0547l3.3398 3.3398v-9h-9l3.5508 3.5508c-2.4402 2.4414-5.8139 3.9492-9.5508 3.9492-7.4737 0-13.5-6.0263-13.5-13.5 0-1.5781.26745-3.0941.76172-4.5h-3.1406zm8.3789 19.195c2.2517 1.1545 4.8015 1.8047 7.5 1.8047s5.2485-.65014 7.5-1.8047v6.3047h-15z"/><path d="m-84-84v11.285c-.4032.33357-.79036.68497-1.1602 1.0547l-3.3398-3.3398v9h9l-3.5566-3.5566c2.4409-2.4408 5.8194-3.9434 9.5566-3.9434 7.4737 0 13.5 6.0263 13.5 13.5 0 1.5799-.27218 3.0927-.76758 4.5h3.1406c.40693-1.4319.62695-2.9398.62695-4.5 0-5.1105-2.338-9.6856-6-12.715v-11.285h-21zm3 3h15v6.3047c-2.2517-1.1545-4.8015-1.8047-7.5-1.8047-2.6989 0-5.2485.64995-7.5 1.8047z"/><path d="m-42.912-64.78v6.78h-3.228v-17.352h5.292q1.776 0 3.036.372 1.272.36 2.076 1.02.816.66 1.188 1.584.384.912.384 2.016 0 .876-.264 1.656-.252.78-.744 1.416-.48.636-1.2 1.116-.708.48-1.62.768.612.348 1.056.996l4.344 6.408h-2.904q-.42 0-.72-.168-.288-.168-.492-.48l-3.648-5.556q-.204-.312-.456-.444-.24-.132-.72-.132zm0-2.316h2.016q.912 0 1.584-.228.684-.228 1.116-.624.444-.408.66-.96t.216-1.212q0-1.32-.876-2.028-.864-.708-2.652-.708h-2.064zm17.304-3.408q1.164 0 2.136.372.984.372 1.692 1.092.708.708 1.104 1.752.396 1.032.396 2.364 0 .336-.036.564-.024.216-.108.348-.072.12-.204.18-.132.048-.336.048h-7.608q.132 1.896 1.02 2.784t2.352.888q.72 0 1.236-.168.528-.168.912-.372.396-.204.684-.372.3-.168.576-.168.18 0 .312.072t.228.204l.864 1.08q-.492.576-1.104.972-.612.384-1.284.624-.66.228-1.356.324-.684.096-1.332.096-1.284 0-2.388-.42-1.104-.432-1.92-1.26-.816-.84-1.284-2.064-.468-1.236-.468-2.856 0-1.26.408-2.364.408-1.116 1.164-1.932.768-.828 1.86-1.308 1.104-.48 2.484-.48zm.06 2.124q-1.296 0-2.028.732t-.936 2.076h5.568q0-.576-.156-1.08-.156-.516-.48-.9t-.816-.6q-.492-.228-1.152-.228zm7.716 10.38v-17.832h2.964v7.032q.732-.78 1.656-1.236.924-.468 2.16-.468 1.008 0 1.836.42.84.408 1.44 1.2.612.792.936 1.956.336 1.164.336 2.676 0 1.38-.372 2.556t-1.068 2.04q-.684.864-1.668 1.356-.972.48-2.184.48-.564 0-1.032-.12-.468-.108-.852-.312t-.72-.492q-.324-.3-.624-.66l-.132.828q-.072.312-.252.444-.168.132-.468.132zm5.76-10.2q-.924 0-1.584.396-.648.384-1.212 1.092v5.52q.504.624 1.092.876.6.24 1.296.24.672 0 1.212-.252t.912-.768q.384-.516.588-1.296.204-.792.204-1.86 0-1.08-.18-1.824-.168-.756-.492-1.224t-.792-.684q-.456-.216-1.044-.216zm7.92 10.2v-17.832h2.964v7.032q.732-.78 1.656-1.236.924-.468 2.16-.468 1.008 0 1.836.42.84.408 1.44 1.2.612.792.936 1.956.336 1.164.336 2.676 0 1.38-.372 2.556t-1.068 2.04q-.684.864-1.668 1.356-.972.48-2.184.48-.564 0-1.032-.12-.468-.108-.852-.312t-.72-.492q-.324-.3-.624-.66l-.132.828q-.072.312-.252.444-.168.132-.468.132zm5.76-10.2q-.924 0-1.584.396-.648.384-1.212 1.092v5.52q.504.624 1.092.876.6.24 1.296.24.672 0 1.212-.252t.912-.768q.384-.516.588-1.296.204-.792.204-1.86 0-1.08-.18-1.824-.168-.756-.492-1.224t-.792-.684q-.456-.216-1.044-.216zm11.04-7.632v17.832h-2.964v-17.832zm8.436 5.328q1.164 0 2.136.372.984.372 1.692 1.092.708.708 1.104 1.752.396 1.032.396 2.364 0 .336-.036.564-.024.216-.108.348-.072.12-.204.18-.132.048-.336.048h-7.608q.132 1.896 1.02 2.784t2.352.888q.72 0 1.236-.168.528-.168.912-.372.396-.204.684-.372.3-.168.576-.168.18 0 .312.072t.228.204l.864 1.08q-.492.576-1.104.972-.612.384-1.284.624-.66.228-1.356.324-.684.096-1.332.096-1.284 0-2.388-.42-1.104-.432-1.92-1.26-.816-.84-1.284-2.064-.468-1.236-.468-2.856 0-1.26.408-2.364.408-1.116 1.164-1.932.768-.828 1.86-1.308 1.104-.48 2.484-.48zm.06 2.124q-1.296 0-2.028.732t-.936 2.076h5.568q0-.576-.156-1.08-.156-.516-.48-.9t-.816-.6q-.492-.228-1.152-.228z" aria-label="Rebble"/><path d="m-41.128-44q-.304 0-.384-.296l-.128-.984q-.52.632-1.192 1.016-.664.376-1.528.376-.696 0-1.264-.264-.568-.272-.968-.792t-.616-1.296-.216-1.784q0-.896.24-1.664.24-.776.688-1.344.456-.568 1.104-.888.648-.328 1.472-.328.744 0 1.272.256.528.248.944.704v-4.496h1.424v11.784zm-2.76-1.04q.696 0 1.216-.32.528-.32.968-.904v-3.92q-.392-.528-.864-.736-.464-.216-1.032-.216-1.136 0-1.744.808t-.608 2.304q0 .792.136 1.36.136.56.4.928.264.36.648.528t.88.168zm9.208-7.192q.728 0 1.344.248.616.24 1.064.704.448.456.696 1.136.256.672.256 1.536 0 .336-.072.448t-.272.112h-5.392q.016.768.208 1.336t.528.952q.336.376.8.568.464.184 1.04.184.536 0 .92-.12.392-.128.672-.272t.464-.264q.192-.128.328-.128.176 0 .272.136l.4.52q-.264.32-.632.56-.368.232-.792.384-.416.152-.864.224-.448.08-.888.08-.84 0-1.552-.28-.704-.288-1.224-.832-.512-.552-.8-1.36t-.288-1.856q0-.848.256-1.584.264-.736.752-1.272.488-.544 1.192-.848.704-.312 1.584-.312zm.032 1.048q-1.032 0-1.624.6-.592.592-.736 1.648h4.408q0-.496-.136-.904-.136-.416-.4-.712-.264-.304-.648-.464-.376-.168-.864-.168zm3.912-.92h1.168q.168 0 .28.088t.16.208l2.056 5.216q.112.288.176.576t.12.568q.064-.28.136-.568t.184-.576l2.08-5.216q.048-.128.152-.208.112-.088.272-.088h1.112l-3.304 8.104h-1.288zm12.624 8.104v-6.888l-.896-.104q-.168-.04-.28-.12-.104-.088-.104-.248v-.584h1.28v-.784q0-.696.192-1.232.2-.544.56-.912.368-.376.88-.568t1.152-.192q.544 0 1.008.16l-.032.712q-.008.16-.136.192t-.36.032h-.248q-.368 0-.672.096-.296.096-.512.312t-.336.568q-.112.352-.112.872v.744h2.344v1.032h-2.296v6.912zm8.352-8.232q.888 0 1.6.296.72.296 1.216.84.504.544.768 1.32.272.768.272 1.72 0 .96-.272 1.728-.264.768-.768 1.312-.496.544-1.216.84-.712.288-1.6.288t-1.608-.288q-.712-.296-1.216-.84t-.776-1.312-.272-1.728q0-.952.272-1.72.272-.776.776-1.32t1.216-.84q.72-.296 1.608-.296zm0 7.232q1.2 0 1.792-.8.592-.808.592-2.248 0-1.448-.592-2.256t-1.792-.808q-.608 0-1.056.208t-.752.6q-.296.392-.448.968-.144.568-.144 1.288t.144 1.288q.152.568.448.96.304.384.752.592t1.056.208zm5.616 1v-8.104h.816q.232 0 .32.088t.12.304l.096 1.264q.416-.848 1.024-1.32.616-.48 1.44-.48.336 0 .608.08.272.072.504.208l-.184 1.064q-.056.2-.248.2-.112 0-.344-.072-.232-.08-.648-.08-.744 0-1.248.432-.496.432-.832 1.256v5.16zm7.68-8.104v5.168q0 .92.424 1.424t1.28.504q.624 0 1.176-.296t1.016-.824v-5.976h1.424v8.104h-.848q-.304 0-.384-.296l-.112-.872q-.528.584-1.184.944-.656.352-1.504.352-.664 0-1.176-.216-.504-.224-.848-.624t-.52-.968q-.168-.568-.168-1.256v-5.168zm7.664 8.104v-8.104h.848q.304 0 .384.296l.104.832q.448-.552 1-.904.56-.352 1.296-.352.824 0 1.328.456.512.456.736 1.232.168-.44.44-.76.28-.32.624-.528t.728-.304q.392-.096.792-.096.64 0 1.136.208.504.2.848.592.352.392.536.968.184.568.184 1.304v5.16h-1.424v-5.16q0-.952-.416-1.44-.416-.496-1.208-.496-.352 0-.672.128-.312.12-.552.36t-.384.608q-.136.36-.136.84v5.16h-1.424v-5.16q0-.976-.392-1.456t-1.144-.48q-.528 0-.984.288-.448.28-.824.768v6.04z" fill="#ff4700" aria-label="dev forum"/></g></g></svg>
