<?xml version="1.0" encoding="UTF-8" standalone="no"?>
<!-- Created with Inkscape (http://www.inkscape.org/) -->

<svg
   width="211"
   height="53"
   viewBox="0 0 211 52.999999"
   version="1.1"
   id="svg1"
   inkscape:version="1.4.2 (ebf0e940d0, 2025-05-08)"
   sodipodi:docname="hackster.svg"
   xml:space="preserve"
   xmlns:inkscape="http://www.inkscape.org/namespaces/inkscape"
   xmlns:sodipodi="http://sodipodi.sourceforge.net/DTD/sodipodi-0.dtd"
   xmlns="http://www.w3.org/2000/svg"
   xmlns:svg="http://www.w3.org/2000/svg"><sodipodi:namedview
     id="namedview1"
     pagecolor="#ffffff"
     bordercolor="#666666"
     borderopacity="1.0"
     inkscape:showpageshadow="2"
     inkscape:pageopacity="0.0"
     inkscape:pagecheckerboard="0"
     inkscape:deskcolor="#d1d1d1"
     inkscape:document-units="px"
     inkscape:zoom="3.0725984"
     inkscape:cx="113.58465"
     inkscape:cy="13.99467"
     inkscape:window-width="1920"
     inkscape:window-height="1011"
     inkscape:window-x="0"
     inkscape:window-y="0"
     inkscape:window-maximized="1"
     inkscape:current-layer="layer1" /><defs
     id="defs1" /><g
     inkscape:label="Layer 1"
     inkscape:groupmode="layer"
     id="layer1"><title
       id="title1">Hackster.io</title><desc
       id="desc1">Learning Hardware Community.</desc><g
       clip-path="none"
       id="g3"
       transform="matrix(1.2499998,0,0,1.2499998,9.1250614,4.1247564)"><circle
         cx="18"
         cy="18"
         fill="var(--hacksterToTransparent)"
         r="16"
         id="circle1"
         style="fill:#2e9fe6;fill-opacity:1" /><path
         d="m 153.5,20.6002 c 0,3.4 -2.4,5.9 -5.8,5.9 -3.4,0 -5.8,-2.5 -5.8,-5.9 0,-3.4 2.4,-5.9 5.8,-5.9 3.4,0 5.8,2.5 5.8,5.9 z m -2.7,0 c 0,-2.3 -1.5,-3.5 -3.1,-3.5 -1.6,0 -3.1,1.2 -3.1,3.5 0,2.3 1.5,3.5 3.1,3.5 1.6,0 3.1,-1.2 3.1,-3.5 z m -12.4,-11.2 c 1,0 1.7,0.8 1.7,1.7 0,0.9 -0.8,1.7 -1.7,1.7 -0.9,0 -1.7,-0.8 -1.7,-1.7 0,-0.9 0.8,-1.7 1.7,-1.7 z m -1.3,16.8 v -11.1 h 2.6 v 11.1 z m -4.7,-3.6 c 1,0 1.9,0.8 1.9,1.9 0,1.1 -0.8,1.9 -1.9,1.9 -1.1,0 -1.9,-0.8 -1.9,-1.9 0,-1.1 0.8,-1.9 1.9,-1.9 z m -0.8,-4.9 c -0.3,0 -0.6,0 -0.9,0 -2.1,0 -3,1.2 -3,3.3 v 5.3 H 125 v -11.1 h 2.6 v 1.8 c 0.5,-1.2 1.8,-1.9 3.2,-1.9 1.4,0 0.6,0 0.7,0 v 2.7 z m -9.1,5.3 c -0.6,1.9 -2.4,3.5 -5,3.5 -2.6,0 -5.7,-2.2 -5.7,-6 0,-3.8 2.6,-5.9 5.4,-5.9 2.8,0 5.4,2.3 5.4,5.8 0,3.5 0,0.8 0,0.8 h -8.1 c 0,1.7 1.4,2.9 3,2.9 1.6,0 2.4,-0.8 2.8,-1.9 l 2.2,0.7 z m -2.5,-3.6 c 0,-1.3 -0.9,-2.5 -2.7,-2.5 -1.8,0 -2.6,1.3 -2.7,2.5 h 5.5 z m -11.8,-4.3 h 2.3 v 2.4 h -2.3 v 5.2 c 0,1 0.4,1.4 1.4,1.4 1,0 0.8,0 0.9,0 v 2.2 c -0.2,0 -0.7,0.3 -1.6,0.3 -2.1,0 -3.3,-1.2 -3.3,-3.3 v -5.6 h -2.1 v -2.4 h 0.6 c 1.2,0 1.7,-0.8 1.7,-1.7 v -1.7 h 2.4 v 3.4 z m -12.5,7.4 c 0,1 0.8,1.9 2.3,1.9 1.5,0 1.7,-0.6 1.7,-1.3 0,-0.7 -0.4,-1.1 -1.3,-1.2 l -1.6,-0.4 c -2,-0.4 -3,-1.7 -3,-3.3 0,-1.6 1.8,-3.6 4.1,-3.6 2.3,0 4.1,2 4.3,3.1 l -2.2,0.6 c 0,-0.6 -0.6,-1.7 -2.1,-1.7 -1.5,0 -1.6,0.6 -1.6,1.3 0,0.7 0.4,1 1.1,1.2 l 1.7,0.3 c 2.1,0.5 3.2,1.7 3.2,3.4 0,1.7 -1.4,3.6 -4.2,3.6 -2.8,0 -4.5,-2.1 -4.6,-3.4 l 2.3,-0.6 z m -7.5,-2.7 4.7,6.4 h -3.3 l -3.3,-4.6 -1.4,1.4 v 3.1 h -2.6 v -16.6 h 2.6 v 9.9 l 4.3,-4.5 h 3.5 l -4.6,4.7 z m -16.2,0.8 c 0,2.2 1.4,3.5 3.1,3.5 1.7,0 2.5,-1.2 2.8,-2.1 l 2.3,0.8 c -0.5,1.7 -2.2,3.6 -5.1,3.6 -2.9,0 -5.8,-2.5 -5.8,-5.9 0,-3.4 2.5,-5.9 5.7,-5.9 3.2,0 4.6,1.9 5.1,3.7 l -2.4,0.9 c -0.3,-1 -1,-2.1 -2.7,-2.1 -1.7,0 -3.1,1.2 -3.1,3.5 z m -11.1,-0.8 2.9,-0.4 c 0.6,0 0.7999,-0.4 0.7999,-0.8 0,-0.9 -0.5999,-1.7 -2.0999,-1.7 -1.5,0 -2.2001,0.9 -2.3001,2 l -2.3999,-0.5 c 0.2,-1.9 1.9,-3.6 4.7,-3.6 2.8,0 4.7,1.9 4.7,4.2 v 5.5 c 0,1 0.1,1.7 0.1,1.8 h -2.5 c 0,0 -0.1001,-0.5 -0.1001,-1.4 -0.5,0.8 -1.5999,1.8 -3.3999,1.8 -1.8,0 -3.8,-1.6 -3.8,-3.4 0,-1.8 1.5,-3.1 3.4,-3.4 z m 3.6999,1.8 v -0.5 l -2.9,0.4 c -0.8,0.1 -1.5,0.6 -1.5,1.5 0,0.9 0.6001,1.4 1.6001,1.4 1.5,0 2.7999,-0.7 2.7999,-2.9 z M 48,26.2002 h -2.7001 v -16.6 H 48 v 6.5 c 0.8,-1 1.9999,-1.4 3.1999,-1.4 2.7,0 4.1001,2 4.1001,4.4 v 7.1 h -2.7001 v -6.6 c 0,-1.4 -0.5999,-2.5 -2.2999,-2.5 -1.7,0 -2.3,1.1 -2.3,2.5 v 6.5 z m -30.1,8.9 c -9.50005,0 -17.200049,-7.7 -17.200049,-17.2 0,-9.5 7.699999,-17.200005 17.200049,-17.200005 9.5,0 17.1999,7.700005 17.1999,17.200005 0,9.5 -7.6999,17.2 -17.1999,17.2 z m 0,-31.7 c -8.00005,0 -14.50005,6.5 -14.50005,14.5 0,8 6.5,14.5 14.50005,14.5 8,0 14.5,-6.5 14.5,-14.5 0,-8 -6.5,-14.5 -14.5,-14.5 z"
         fill="var(--hacksterToWhite)"
         id="path2"
         style="fill:#2e9fe6;fill-opacity:1"
         clip-path="none" /><path
         d="m 11.9,12.9003 c 0,-0.3 0.2,-0.5 0.4,-0.6 l 2.8,-0.8 c 0.2,0 0.4,0 0.4,0.3 v 1 c 0,0.2 -0.2,0.4 -0.4,0.4 h -2.8 c -0.2,0 -0.4,-0.2 -0.4,-0.4 z m 11.5,2.5 h -2.8001 c -0.2,0 -0.3999,-0.2 -0.3999,-0.4 v -4.4 c 0,-0.2 0.1999,-0.5 0.3999,-0.5 L 23.4,9.30029 c 0.2,0 0.3999,0 0.3999,0.3 v 5.40001 c 0,0.2 -0.1999,0.4 -0.3999,0.4 z m 0.3999,7.6 c 0,0.3 -0.1999,0.5 -0.3999,0.6 l -2.8001,0.8 c -0.2,0 -0.3999,0 -0.3999,-0.3 v -1 c 0,-0.2 0.1999,-0.4 0.3999,-0.4 H 23.4 c 0.2,0 0.3999,0.2 0.3999,0.4 z M 12.3,20.5003 h 2.8 c 0.2,0 0.4,0.2 0.4,0.4 v 4.4 c 0,0.2 -0.2,0.5 -0.4,0.5 l -2.8,0.8 c -0.2,0 -0.4,0 -0.4,-0.3 v -5.4 c 0,-0.2 0.2,-0.4 0.4,-0.4 z m -4.50007,-4.4 c 0,0 0.4,-0.1 0.6,-0.2 l 6.80007,-1.9 c 0.2,0 0.4,0 0.4,0.3 v 1.8 c 0,0.2 0.2,0.4 0.4,0.4 h 7.5 c 0.2,0 0.4,0.2 0.4,0.4 v 2 c 0,0.2 0.1999,0.4 0.3999,0.4 H 27.9 c 0.1,0 0.3,0.1 0.3,0.3 0,0.2 0,0.1 0,0.2 0,0 -0.4001,0.1 -0.6001,0.2 -1.3,0.4 -5.5,1.5 -6.8,1.9 -0.2,0 -0.3999,0 -0.3999,-0.3 v -1.8 c 0,-0.2 -0.2,-0.4 -0.4,-0.4 h -7.5 c -0.2,0 -0.4,-0.2 -0.4,-0.4 v -2.1 c 0,-0.2 -0.2,-0.4 -0.4,-0.4 H 8.09993 c -0.1,0 -0.3,-0.1 -0.3,-0.3 0,-0.2 0,-0.1 0,-0.2 z"
         fill="var(--staticWhite)"
         id="path3"
         style="fill:#ffffff" /></g></g></svg>
