<?xml version="1.0" encoding="UTF-8" standalone="no"?>
<svg
   width="216"
   height="47"
   fill="none"
   version="1.1"
   id="svg32"
   sodipodi:docname="stackoverflow.svg"
   inkscape:version="1.4.2 (ebf0e940d0, 2025-05-08)"
   xmlns:inkscape="http://www.inkscape.org/namespaces/inkscape"
   xmlns:sodipodi="http://sodipodi.sourceforge.net/DTD/sodipodi-0.dtd"
   xmlns="http://www.w3.org/2000/svg"
   xmlns:svg="http://www.w3.org/2000/svg">
  <defs
     id="defs32" />
  <sodipodi:namedview
     id="namedview32"
     pagecolor="#ffffff"
     bordercolor="#666666"
     borderopacity="1.0"
     inkscape:showpageshadow="2"
     inkscape:pageopacity="0.0"
     inkscape:pagecheckerboard="0"
     inkscape:deskcolor="#d1d1d1"
     inkscape:zoom="4.1241828"
     inkscape:cx="96.988912"
     inkscape:cy="52.13154"
     inkscape:window-width="1920"
     inkscape:window-height="1011"
     inkscape:window-x="0"
     inkscape:window-y="0"
     inkscape:window-maximized="1"
     inkscape:current-layer="svg32" />
  <path
     d="m 57,28 -2.2,-0.2 c -1.7,-0.1 -2.3,-0.8 -2.3,-2 0,-1.4 1,-2.2 3,-2.2 1.3,-0.1 2.6,0.3 3.6,1.1 l 1.3,-1.3 A 7.5,7.5 0 0 0 55.6,22 c -2.9,0 -4.9,1.5 -4.9,3.9 0,2.2 1.4,3.4 4,3.6 l 2.2,0.2 c 1.6,0.1 2.2,0.8 2.2,2 0,1.6 -1.4,2.4 -3.6,2.4 -1.6,0.1 -3.1,-0.5 -4.2,-1.6 L 50,33.8 c 1.5,1.4 3.5,2 5.5,1.9 3.2,0 5.5,-1.5 5.5,-4.1 C 61,29 59.4,28.2 57,28 Z m 15.8,-6.1 c -2.2,0 -3.5,0.4 -4.7,1.9 l 1.3,1.3 a 3.6,3.6 0 0 1 3.4,-1.5 c 2.5,0 3.4,1 3.4,2.9 v 1.3 h -4 c -3,0 -4.6,1.5 -4.6,3.9 0,1 0.3,2 1,2.7 0.8,0.9 1.9,1.2 3.8,1.2 1.4,0.1 2.9,-0.4 3.9,-1.4 v 1.3 h 2 v -9.1 c -0.1,-2.9 -1.9,-4.5 -5.5,-4.5 z m 3.4,8.9 c 0.1,0.8 -0.1,1.7 -0.7,2.3 a 4,4 0 0 1 -3,0.9 c -2.1,0 -3.1,-0.7 -3.1,-2.3 0,-1.6 1,-2.4 3,-2.4 h 3.8 z m 9.7,-7.1 c 1.2,0 2.4,0.5 3.1,1.5 l 1.3,-1.3 a 5.4,5.4 0 0 0 -4.4,-2 c -3.4,0 -5.9,2.3 -5.9,6.9 0,4.6 2.6,6.9 5.9,6.9 1.7,0.1 3.3,-0.7 4.4,-2 L 89,32.4 c -0.7,1 -1.9,1.5 -3.1,1.5 -1.2,0.1 -2.4,-0.5 -3.1,-1.5 -0.7,-1.1 -1,-2.3 -0.9,-3.6 -0.1,-1.3 0.2,-2.5 0.9,-3.6 0.7,-1 1.9,-1.6 3.1,-1.5 z m 16.8,-1.6 h -2.4 L 94.2,28 V 16.1 h -2 v 19.4 h 2 v -4.9 l 2.4,-2.4 4.5,7.3 h 2.4 l -5.6,-8.6 z m 9.2,-0.2 c -1.6,0 -3.2,0.5 -4.3,1.7 -1.3,1.3 -1.6,3 -1.6,5.4 0,2.5 0.3,4.1 1.6,5.4 a 6.1,6.1 0 0 0 4.3,1.7 c 1.6,0.1 3.2,-0.5 4.3,-1.7 1.3,-1.3 1.6,-2.9 1.6,-5.4 0,-2.5 -0.3,-4 -1.6,-5.4 a 5.4,5.4 0 0 0 -4.3,-1.7 z m 1.7,10.5 c -0.9,0.8 -2.3,0.8 -3.2,0 -0.7,-0.7 -0.8,-2 -0.8,-3.4 0,-1.4 0.1,-2.7 0.8,-3.4 0.9,-0.8 2.3,-0.8 3.2,0 0.7,0.7 0.8,2 0.8,3.4 0,1.5 -0.1,2.7 -0.8,3.4 z M 127.2,22 124.4,30.6 121.6,22 h -3.7 l 5.2,14 h 2.7 l 5.1,-14 z m 9.6,0 c -3.6,0 -6.1,2.5 -6.1,7 0,5.7 3.2,7.2 6.5,7.2 2,0.1 4,-0.7 5.3,-2.2 l -2.1,-2 c -0.8,0.8 -2,1.3 -3.2,1.2 a 3,3 0 0 1 -3.1,-2.7 v -0.4 h 8.7 v -1.6 c 0.1,-3.8 -2.1,-6.6 -6,-6.6 z m -2.7,5.7 0.3,-1.5 c 0.4,-0.9 1.3,-1.4 2.3,-1.4 1,0 1.9,0.5 2.3,1.4 l 0.3,1.5 z m 13.3,-4.3 V 22.1 H 144 v 14 h 3.5 v -8.4 c 0,-1.3 0.8,-2.4 2.1,-2.6 h 0.2 c 0.7,0 1.4,0.3 1.8,0.8 l 2.6,-2.6 A 4.1,4.1 0 0 0 151,22 c -1.3,0 -2.6,0.4 -3.5,1.4 z M 155,20.6 V 36 h 3.5 V 25 h 2.6 v -2.7 h -2.6 v -1.5 c 0,-0.6 0.3,-1.2 1,-1.3 h 1.5 v -3 h -2 a 3.9,3.9 0 0 0 -4,3.8 z m 20.3,1.3 c -1.6,0 -3.2,0.5 -4.3,1.7 -1.3,1.3 -1.6,3 -1.6,5.4 0,2.5 0.3,4.1 1.6,5.4 a 6.1,6.1 0 0 0 4.3,1.7 c 1.6,0.1 3.2,-0.5 4.3,-1.7 1.3,-1.3 1.6,-2.9 1.6,-5.4 0,-2.5 -0.3,-4 -1.6,-5.4 a 5.4,5.4 0 0 0 -4.3,-1.7 z m 1.7,10.5 c -0.9,0.8 -2.3,0.8 -3.2,0 -0.7,-0.7 -0.8,-2 -0.8,-3.4 0,-1.4 0.1,-2.7 0.8,-3.4 0.9,-0.8 2.3,-0.8 3.2,0 0.7,0.7 0.8,2 0.8,3.4 0,1.5 -0.1,2.7 -0.8,3.4 z M 197.7,22 195.4,30.6 192.5,22 H 190 l -2.8,8.7 -2.3,-8.6 h -3.7 l 4.3,14 h 2.9 l 2.9,-8.8 2.9,8.8 h 3 l 4.3,-14 h -3.8 z m -31.2,9.8 V 16.6 H 163 V 32 a 3.8,3.8 0 0 0 3.6,4 h 2.5 v -3 h -1.3 c -0.6,0.1 -1.1,-0.2 -1.3,-0.8 z M 67.7,22.4 H 64 V 18 h -2 v 13.9 c 0,2 1.1,3.6 3.4,3.6 h 1.4 v -1.7 h -1 c -1.3,0 -1.8,-0.7 -1.8,-2 v -7.7 h 1.9 z"
     fill="#222426"
     id="path27" />
  <path
     d="m 41,38 v -9 h 4 V 42 H 15 V 29 h 4 v 9 z"
     fill="#bcbbbb"
     id="path28" />
  <path
     d="M 38,31 38.8,28 22.7,24.7 22,28 Z m -13.8,-10.8 15,7 1.4,-3 -15,-7 z M 28.4,12.8 41,23.4 43.1,20.9 30.4,10.3 28.3,12.8 Z m 8.1,-7.8 -2.7,2 9.9,13.3 2.7,-2 z M 22,35 H 38 V 32 H 22 Z"
     fill="#f48024"
     id="path29" />
</svg>
